PathFileType   4   (X/Y/Z)
DataRate	CameraRate	NumFrames	NumMarkers	Units	OrigDataRate	OrigDataStartFrame	OrigNumFrames
120.0	120.0	5	37	mm	120.0	15	114
Frame#	Time	midhip	hip_r	hip_l	knee_r	knee_l	ankle_r	ankle_l	midasis	asis_r	asis_l	psis_r	psis_l	epicondLat_r	epicondLat_l	epicondMed_r	epicondMed_l	malleolusLat_r	malleolusLat_l	malleolusMedv_r	malleolusMedv_l	neck	subclavicle_r	subclavicle_l	sternalnotch	xyphoidprocess	thighwand_r	thighwand_l	upperleg1_r	upperleg1_l	upperleg2_r	upperleg2_l	shankwand_r	shankwand_l	lowerleg1_r	lowerleg1_l	toe_r	toe_l
 	 	X1	Y1	Z1	X2	Y2	Z2	X3	Y3	Z3	X4	Y4	Z4	X5	Y5	Z5	X6	Y6	Z6	X7	Y7	Z7	X8	Y8	Z8	X9	Y9	Z9	X10	Y10	Z10	X11	Y11	Z11	X12	Y12	Z12	X13	Y13	Z13	X14	Y14	Z14	X15	Y15	Z15	X16	Y16	Z16	X17	Y17	Z17	X18	Y18	Z18	X19	Y19	Z19	X20	Y20	Z20	X21	Y21	Z21	X22	Y22	Z22	X23	Y23	Z23	X24	Y24	Z24	X25	Y25	Z25	X26	Y26	Z26	X27	Y27	Z27	X28	Y28	Z28	X29	Y29	Z29	X30	Y30	Z30	X31	Y31	Z31	X32	Y32	Z32	X33	Y33	Z33	X34	Y34	Z34	X35	Y35	Z35	X36	Y36	Z36	X37	Y37	Z37

	15	0.23333	112.551	773.442	-286.997	88.365	770.712	-209.155	98.243	783.123	-363.973	185.782	387.915	-166.236	153.363	425.169	-339.787	-102.616	182.950	-202.545	132.384	57.853	-314.100	220.535	848.702	-272.692	212.728	838.894	-150.340	228.341	858.510	-395.044	-24.531	917.227	-250.355	-25.088	921.738	-305.081	179.022	394.144	-95.330	160.595	421.483	-410.825	217.556	380.107	-241.526	131.188	414.863	-256.163	-112.860	190.943	-166.303	119.980	55.943	-351.554	-87.131	179.058	-236.298	125.976	76.407	-274.721	8.770	1345.258	-285.724	140.492	1285.045	-246.851	138.292	1284.509	-336.794	123.326	1278.414	-301.332	177.785	1207.338	-303.271	295.803	585.681	-88.276	304.036	619.982	-338.629	258.856	592.010	-116.182	256.714	629.064	-353.994	260.782	514.358	-119.773	246.836	555.549	-346.729	60.809	201.672	-153.337	128.414	154.553	-425.166	37.988	240.810	-172.085	126.587	170.879	-381.042	-61.217	90.905	-196.126	235.011	46.217	-326.365
	16	0.24167	122.810	774.632	-286.620	98.838	772.246	-208.721	108.299	784.010	-363.616	207.272	391.085	-166.971	156.712	425.299	-339.865	-74.447	178.057	-202.984	133.058	57.930	-314.077	230.992	849.694	-272.950	223.494	840.371	-150.191	238.490	859.017	-395.710	-13.819	918.912	-250.667	-14.582	923.132	-305.432	201.154	397.119	-95.989	162.902	421.426	-410.992	239.893	384.871	-243.067	133.945	417.041	-254.343	-84.819	185.638	-166.691	120.417	56.120	-351.456	-59.245	175.106	-236.936	127.440	76.548	-274.733	19.573	1346.813	-286.302	151.548	1286.090	-247.230	151.011	1285.241	-330.140	134.579	1279.146	-301.012	189.773	1208.132	-299.108	312.909	591.896	-90.116	310.959	617.381	-340.967	276.525	597.812	-117.772	262.704	627.302	-356.055	280.019	519.912	-121.296	251.403	554.411	-347.910	88.128	201.766	-154.378	129.184	154.941	-425.141	63.793	240.121	-172.544	128.076	171.134	-381.039	-28.112	88.921	-196.913	235.285	46.156	-326.560
	17	0.25000	132.978	775.794	-286.288	109.226	773.771	-208.333	118.320	784.771	-363.306	228.360	394.320	-167.805	160.055	425.428	-339.823	-45.686	172.493	-203.407	133.834	58.037	-314.008	241.329	850.720	-273.263	234.110	841.987	-150.227	248.549	859.453	-396.300	-3.174	920.395	-250.962	-4.119	924.315	-305.749	222.895	400.192	-96.756	165.176	421.370	-411.024	262.242	389.288	-244.763	136.878	419.014	-253.784	-56.222	179.679	-167.081	120.858	56.344	-351.277	-30.663	171.087	-237.631	128.380	76.445	-274.533	30.577	1348.009	-286.644	162.488	1287.024	-247.100	164.034	1283.347	-323.388	145.815	1279.861	-300.811	201.426	1207.059	-291.686	329.679	598.005	-92.042	317.803	614.703	-343.320	292.118	602.872	-119.158	269.494	625.572	-358.103	298.952	525.667	-123.151	256.612	553.008	-349.332	115.745	201.771	-155.324	129.748	155.368	-425.028	90.209	239.107	-172.530	128.921	171.581	-380.415	5.500	86.554	-197.531	235.573	46.055	-326.758
	18	0.25833	143.085	776.885	-286.010	119.548	775.243	-207.994	128.309	785.379	-363.045	248.989	397.586	-168.730	163.411	425.538	-339.642	-16.351	166.358	-203.804	134.686	58.170	-313.879	251.557	851.747	-273.638	244.597	843.695	-150.463	258.517	859.799	-396.813	7.404	921.628	-251.223	6.310	925.253	-306.023	244.176	403.329	-97.624	167.440	421.297	-410.902	279.972	393.799	-245.068	141.319	420.231	-253.639	-27.081	173.159	-167.460	121.280	56.614	-351.002	-4.434	162.917	-237.798	128.988	76.913	-274.329	41.769	1348.746	-286.827	173.331	1287.703	-246.709	173.489	1287.639	-331.691	157.035	1280.436	-300.625	211.998	1210.241	-300.037	346.086	603.948	-94.031	324.603	611.888	-345.668	307.171	607.809	-120.074	276.829	623.950	-359.897	316.317	531.442	-124.448	262.604	551.593	-350.802	143.609	201.714	-156.176	130.101	155.823	-424.818	110.183	236.428	-174.390	129.279	172.392	-380.188	39.557	83.884	-197.921	235.865	45.926	-326.939
	19	0.26667	153.168	777.861	-285.785	129.837	776.610	-207.696	138.277	785.802	-362.824	269.101	400.854	-169.744	166.802	425.615	-339.315	13.538	159.750	-204.164	135.573	58.324	-313.675	261.697	852.733	-274.077	254.996	845.434	-150.898	268.399	860.032	-397.256	17.921	922.570	-251.431	16.712	925.923	-306.241	264.929	406.495	-98.589	169.727	421.192	-410.618	297.518	397.424	-244.627	149.221	419.824	-251.429	2.585	166.171	-167.818	121.670	56.927	-350.621	27.247	157.613	-238.285	129.889	77.714	-274.123	53.174	1349.328	-287.157	184.028	1288.536	-246.180	185.112	1287.163	-331.179	168.137	1280.974	-300.614	223.031	1210.148	-297.903	362.106	609.665	-96.063	331.396	608.900	-347.977	322.417	612.940	-121.863	283.332	621.953	-361.848	332.892	536.833	-125.691	269.231	550.215	-351.858	171.668	201.624	-156.928	130.287	156.290	-424.500	140.806	235.885	-174.856	129.605	173.300	-380.256	74.009	80.994	-198.041	236.158	45.784	-327.073
